<?xml version="1.0" standalone="no"?>
<!DOCTYPE svg PUBLIC "-//W3C//DTD SVG 20010904//EN"
 "http://www.w3.org/TR/2001/REC-SVG-20010904/DTD/svg10.dtd">
<svg version="1.0" xmlns="http://www.w3.org/2000/svg"
 width="3784.000000pt" height="3784.000000pt" viewBox="0 0 3784.000000 3784.000000"
 preserveAspectRatio="xMidYMid meet">
<metadata>
Created by potrace 1.11, written by Peter Selinger 2001-2013
</metadata>
<g transform="translate(0.000000,3784.000000) scale(0.100000,-0.100000)"
fill="#000000" stroke="none">
<path d="M21984 34015 c-15 -23 -18 -50 -19 -162 l0 -135 -32 -28 c-17 -15
-57 -36 -90 -45 -32 -9 -94 -35 -137 -58 -210 -109 -299 -276 -282 -531 19
-298 112 -421 401 -534 55 -21 155 -60 221 -86 189 -72 348 -175 385 -248 52
-101 -40 -234 -198 -289 -112 -38 -281 -42 -405 -9 -24 7 -89 30 -146 51 -110
42 -148 47 -190 25 -42 -22 -67 -55 -106 -136 -59 -123 -47 -171 53 -206 25
-9 81 -29 123 -45 43 -16 139 -40 213 -52 177 -31 180 -33 180 -160 0 -187 63
-234 289 -212 72 6 74 7 80 37 3 17 -1 77 -9 135 -9 57 -13 114 -10 126 19 67
35 80 145 117 285 96 429 287 430 570 0 210 -93 367 -290 488 -46 28 -165 86
-264 128 -232 98 -384 174 -418 211 -77 80 -77 216 -1 296 22 22 35 27 77 27
28 0 109 7 181 16 159 20 212 15 306 -27 163 -72 237 -30 285 160 29 115 -1
159 -121 176 -27 4 -61 12 -75 17 -14 5 -63 14 -109 18 -116 12 -121 18 -121
142 0 110 -17 161 -64 192 -31 20 -119 42 -203 51 -59 7 -62 6 -79 -20z"/>
<path d="M17952 30284 c-175 -51 -332 -151 -425 -269 -50 -64 -99 -159 -132
-254 -53 -156 -91 -190 -212 -191 -51 0 -64 -3 -73 -19 -15 -29 -13 -213 3
-235 9 -12 40 -23 87 -32 41 -8 82 -22 92 -31 38 -34 46 -142 14 -185 -16 -22
-59 -38 -102 -38 -41 0 -89 -22 -98 -45 -3 -9 -6 -57 -6 -106 0 -123 12 -134
147 -142 77 -4 98 -21 118 -96 88 -328 197 -481 420 -587 130 -62 201 -74 444
-74 198 0 225 2 321 26 171 42 196 68 188 197 -6 93 -35 153 -85 173 -39 17
-61 14 -173 -21 -172 -54 -383 -38 -496 38 -86 57 -148 166 -179 314 l-6 32
251 3 252 3 28 32 c44 49 73 223 40 243 -8 6 -132 10 -285 10 -250 0 -272 2
-302 20 -23 14 -34 29 -39 55 -11 62 2 117 34 146 27 24 37 26 175 33 81 4
193 4 250 0 199 -13 277 36 277 172 0 99 -50 145 -144 129 -42 -6 -557 -7
-564 -1 -5 6 36 83 84 159 61 94 124 153 202 190 93 43 212 49 385 17 115 -21
125 -22 154 -7 45 24 77 95 81 185 l4 73 -44 42 c-64 62 -91 67 -364 66 -223
0 -244 -2 -322 -25z"/>
<path d="M20690 30298 c-49 -9 -83 -29 -105 -61 -13 -21 -15 -634 -15 -5668 0
-4975 2 -5651 15 -5695 l15 -50 357 -117 c1165 -380 2009 -569 2798 -626 77
-6 245 -18 373 -28 202 -15 255 -15 395 -5 89 7 223 17 297 23 611 45 1106
223 1396 501 230 221 344 516 344 891 0 270 -55 505 -199 860 -29 70 -66 170
-82 221 -36 116 -79 181 -141 215 -25 14 -49 24 -52 21 -2 -3 13 -138 34 -300
53 -410 63 -536 57 -718 -6 -184 -27 -282 -87 -409 -99 -212 -257 -362 -519
-493 -132 -66 -307 -124 -440 -146 -83 -13 -138 -15 -275 -10 -217 8 -382 21
-423 34 -108 34 -228 142 -257 229 -13 43 -15 631 -16 5678 0 3096 -3 5631 -4
5633 -2 2 -64 8 -138 14 -152 12 -3258 18 -3328 6z"/>
<path d="M11686 28840 c-973 -113 -1637 -336 -2017 -677 -137 -123 -212 -215
-327 -401 -339 -547 -425 -852 -362 -1284 122 -832 461 -1646 1061 -2548 650
-977 1506 -1877 2689 -2826 184 -147 206 -163 192 -139 -6 11 -512 760 -1125
1665 l-1115 1645 27 12 c69 32 52 39 1035 -455 l931 -469 260 -173 c397 -263
622 -393 709 -407 32 -5 36 -3 36 16 0 53 -168 186 -605 479 -229 153 -278
190 -316 239 -525 677 -789 1064 -1024 1499 -106 198 -172 343 -297 659 -197
493 -233 627 -233 855 0 154 8 202 67 415 132 475 391 854 748 1095 345 232
728 338 1376 379 66 4 125 10 130 14 6 3 215 7 465 8 433 1 458 0 533 -20 54
-14 95 -19 130 -15 37 4 79 -2 151 -21 86 -22 143 -28 400 -41 254 -14 305
-19 337 -35 29 -15 57 -19 130 -18 154 2 158 8 32 56 -75 29 -156 50 -259 68
-82 15 -568 107 -1080 206 -511 99 -1015 194 -1120 211 l-190 31 -560 3 c-560
2 -560 2 -809 -26z"/>
<path d="M16649 27243 l-496 -3 -11 -153 c-9 -110 -12 -884 -12 -2822 l0
-2671 773 -403 c424 -222 776 -407 781 -411 13 -13 -117 -219 -189 -300 -58
-65 -66 -78 -63 -108 2 -26 12 -42 38 -63 54 -43 833 -459 1240 -662 367 -184
555 -271 817 -378 l143 -58 29 36 c16 19 31 45 33 57 1 11 1 1776 -2 3921 -5
3561 -6 3903 -21 3935 -22 49 -56 68 -136 80 -62 9 -1516 10 -2924 3z"/>
<path d="M14625 26500 c-288 -44 -540 -245 -624 -497 -19 -56 -21 -83 -19
-255 3 -176 1 -197 -17 -233 -27 -55 -71 -75 -162 -75 -113 0 -127 -22 -121
-190 4 -130 13 -140 129 -140 92 0 121 -11 145 -55 23 -43 17 -131 -36 -538
-23 -176 -40 -320 -38 -322 2 -2 287 -5 633 -6 598 -4 632 -3 659 14 15 10 34
34 42 52 18 44 18 166 0 210 -27 64 -32 65 -337 63 -151 0 -304 -1 -340 -1
-159 0 -221 90 -173 253 13 45 14 66 4 132 -8 58 -8 88 0 112 22 67 23 67 301
77 141 4 257 13 262 18 13 13 12 255 0 296 -9 30 -10 30 -99 36 -49 4 -161 7
-250 8 -182 1 -180 1 -210 81 -18 53 -14 140 11 210 9 25 22 82 30 128 16 99
40 149 85 180 57 38 97 43 336 38 260 -4 254 -6 273 85 7 30 21 73 32 96 35
72 13 107 -105 163 -116 55 -283 79 -411 60z"/>
<path d="M9263 24170 c-37 -15 -29 -63 36 -221 194 -475 398 -892 629 -1289
106 -183 341 -537 464 -701 113 -149 505 -636 644 -799 142 -166 381 -401 517
-510 65 -52 126 -108 135 -125 14 -27 16 -139 13 -1199 -2 -1105 9 -1859 28
-1879 4 -4 781 -4 1727 0 l1719 8 50 25 c80 40 89 68 93 279 2 95 0 171 -5
169 -117 -57 -131 -62 -183 -62 -102 -1 -168 55 -256 216 -26 46 -97 160 -159
253 -61 94 -159 242 -217 330 -226 343 -449 618 -722 890 -193 192 -294 278
-666 566 -726 562 -1329 1098 -1955 1740 -629 645 -1209 1372 -1664 2089 -142
222 -165 245 -228 220z"/>
<path d="M11605 23554 c155 -267 488 -789 858 -1344 557 -835 656 -980 1137
-1655 646 -906 859 -1231 1145 -1745 137 -245 179 -306 237 -336 73 -38 127
-5 398 244 174 160 232 168 402 54 351 -236 1457 -847 2257 -1247 993 -496
1711 -793 2801 -1159 1166 -391 2111 -614 3006 -711 77 -8 161 -22 185 -31 33
-12 118 -19 339 -29 162 -7 399 -19 525 -26 266 -14 480 -5 850 36 346 38 479
65 845 171 711 207 1177 523 1447 981 208 355 334 871 303 1241 -18 207 -150
712 -270 1037 -385 1036 -1001 1949 -2094 3104 -65 69 -160 175 -212 237 -51
61 -120 135 -151 165 -55 50 -198 149 -216 149 -12 0 65 -139 112 -204 23 -30
83 -104 134 -163 178 -209 548 -719 729 -1003 391 -619 599 -1195 637 -1773
17 -245 -7 -451 -74 -654 -74 -222 -187 -395 -381 -584 -391 -379 -908 -602
-1579 -681 -120 -14 -838 -17 -910 -4 -22 4 -97 11 -166 15 -69 4 -131 11
-137 15 -7 4 -104 11 -217 16 -633 29 -1255 158 -2251 466 -736 227 -1486 515
-2249 865 -229 104 -935 459 -1165 585 -467 255 -970 552 -1022 604 -65 64
-55 90 98 273 94 112 114 148 114 208 0 75 -48 109 -425 303 -503 258 -1375
713 -2720 1419 -671 352 -1474 769 -1784 925 l-565 285 29 -49z"/>
<path d="M13751 23313 c-95 -6 -176 -14 -179 -17 -7 -8 359 -376 497 -499 261
-234 552 -448 819 -601 181 -104 351 -188 367 -182 8 3 27 47 44 100 36 113
38 160 21 502 -9 183 -9 289 0 435 6 107 13 204 16 215 5 20 0 23 -58 32 -35
6 -110 16 -168 22 -139 14 -1131 9 -1359 -7z"/>
<path d="M9052 19511 c-40 -10 -75 -21 -78 -24 -3 -3 106 -211 242 -463 277
-512 281 -523 214 -556 -24 -13 -59 -18 -112 -18 -67 0 -81 -3 -105 -24 -26
-23 -28 -30 -31 -115 -4 -89 -4 -91 26 -121 l30 -30 144 0 c203 0 244 -16 255
-97 8 -61 -13 -121 -50 -143 -28 -18 -51 -20 -185 -20 -91 0 -162 -4 -174 -11
-29 -16 -48 -70 -48 -138 0 -126 19 -136 270 -145 171 -6 186 -8 202 -27 29
-34 40 -95 33 -174 -4 -40 -4 -86 -1 -102 l7 -30 154 -7 c152 -6 200 0 217 27
4 7 8 35 8 64 0 122 35 201 105 237 36 19 57 21 197 21 157 0 158 0 184 26 21
22 27 39 31 91 13 154 -80 201 -308 159 -64 -12 -82 -12 -108 -1 -44 18 -62
58 -62 135 0 76 18 117 62 135 25 11 51 11 139 1 59 -8 126 -10 148 -6 93 15
140 81 127 179 -12 92 -45 116 -161 116 -76 0 -129 15 -152 43 -17 21 10 80
170 367 69 124 151 277 183 340 54 108 130 289 123 295 -7 5 -98 24 -148 30
-66 8 -169 -9 -222 -36 -98 -50 -170 -151 -234 -329 -36 -100 -251 -540 -264
-540 -3 0 -18 24 -33 53 -14 28 -65 121 -111 206 -47 85 -97 189 -112 230 -43
123 -108 253 -153 303 -26 29 -67 60 -108 80 -56 27 -78 32 -152 35 -59 2
-109 -3 -159 -16z"/>
<path d="M16124 18005 c-4 -8 -7 -106 -8 -218 -1 -197 0 -203 23 -244 17 -30
39 -50 70 -65 45 -23 51 -23 460 -23 l414 0 12 35 12 35 -489 248 c-389 197
-490 244 -494 232z"/>
<path d="M16470 15079 c-390 -48 -629 -166 -778 -386 -155 -228 -272 -641
-272 -960 0 -321 151 -514 473 -607 123 -36 234 -53 509 -79 131 -13 240 -25
242 -28 5 -5 -28 -226 -35 -233 -12 -12 -279 -28 -479 -28 -257 -1 -385 12
-634 68 -87 19 -162 32 -166 27 -4 -4 -64 -174 -133 -378 -69 -203 -128 -377
-132 -387 -5 -13 8 -19 82 -37 123 -29 291 -57 468 -78 215 -25 844 -25 1025
0 186 26 279 51 382 103 238 120 345 228 462 467 105 218 157 426 164 667 5
183 -5 244 -57 355 -119 255 -386 375 -959 431 -100 10 -186 21 -191 24 -8 4
-2 51 24 196 7 41 10 41 241 54 253 14 446 0 853 -63 11 -1 48 100 138 373 67
206 123 380 123 386 0 18 -288 73 -527 100 -163 18 -712 27 -823 13z"/>
<path d="M29030 15074 c-347 -42 -610 -160 -798 -359 -217 -229 -381 -603
-476 -1085 -69 -352 -101 -730 -77 -912 23 -170 61 -282 136 -398 166 -258
468 -370 992 -370 184 0 307 10 453 35 89 15 247 58 290 78 l25 12 38 399 c21
219 36 400 34 402 -2 2 -24 -3 -48 -11 -82 -30 -233 -64 -354 -81 -162 -22
-429 -22 -555 0 -51 9 -96 19 -98 21 -3 2 46 294 107 647 121 690 129 723 194
772 116 87 468 101 809 32 62 -13 115 -22 117 -20 4 3 136 360 231 626 l39
107 -57 21 c-219 83 -686 122 -1002 84z"/>
<path d="M2640 15013 c19 -3 467 -50 995 -107 848 -90 961 -100 966 -87 4 9
12 50 18 91 7 41 15 83 17 93 5 16 -47 17 -1013 15 -560 -1 -1002 -3 -983 -5z"/>
<path d="M4785 15008 c-4 -12 -525 -2973 -525 -2983 0 -3 204 -5 454 -5 424 0
455 1 460 18 6 19 186 1068 186 1083 0 5 150 9 390 9 l390 0 5 23 c6 29 125
684 125 691 0 3 -175 6 -388 6 l-389 0 28 168 c15 92 31 182 34 200 l6 32 422
0 422 0 124 373 c68 204 126 375 130 379 3 4 438 -39 966 -96 528 -56 962
-101 964 -100 2 2 -6 38 -17 81 -11 43 -23 90 -26 106 l-6 27 -1876 0 c-1491
0 -1875 -3 -1879 -12z"/>
<path d="M8690 15013 c0 -4 79 -336 176 -739 l176 -732 -437 -754 c-241 -414
-439 -756 -442 -760 -2 -5 214 -8 480 -8 l483 0 244 430 c204 360 247 430 264
428 17 -3 30 -50 114 -430 l95 -428 509 0 c481 0 509 1 504 18 -14 46 -356
1509 -356 1524 0 10 198 339 440 732 242 393 440 717 440 720 0 3 -222 6 -492
6 l-493 0 -226 -398 c-195 -343 -229 -397 -251 -400 l-25 -3 -83 401 -84 400
-518 0 c-285 0 -518 -3 -518 -7z"/>
<path d="M13805 15013 c17 -2 424 -46 905 -97 l875 -94 80 78 c44 42 93 87
109 98 l29 22 -1014 -2 c-558 0 -1000 -3 -984 -5z"/>
<path d="M18120 15013 c138 -16 1955 -210 1957 -209 1 1 11 50 21 109 l19 107
-1016 -2 c-559 -1 -1000 -3 -981 -5z"/>
<path d="M20265 14998 c-3 -13 -32 -174 -65 -358 -33 -184 -63 -347 -66 -362
l-6 -28 329 -2 329 -3 -193 -1105 c-106 -608 -192 -1108 -193 -1113 0 -4 206
-6 457 -5 l456 3 193 1105 c106 608 193 1108 194 1112 0 4 150 9 332 10 l333
3 67 370 c37 204 67 376 67 383 1 9 -228 12 -1114 12 l-1115 0 -5 -22z"/>
<path d="M23610 14911 c547 -59 996 -107 997 -106 2 1 10 39 18 86 9 46 18 94
20 107 l5 22 -1017 -1 -1018 -1 995 -107z"/>
<path d="M24795 15008 c-2 -7 -119 -670 -260 -1473 -141 -803 -259 -1472 -262
-1487 l-5 -28 456 0 456 0 5 23 c3 12 120 675 260 1472 140 798 257 1462 261
1478 l6 27 -457 0 c-356 0 -457 -3 -460 -12z"/>
<path d="M26745 15014 c11 -2 317 -35 680 -74 363 -39 676 -73 696 -76 31 -4
42 -1 70 24 19 16 67 53 108 81 l75 51 -825 -1 c-453 -1 -815 -3 -804 -5z"/>
<path d="M30270 15013 c19 -3 467 -50 995 -107 848 -90 961 -100 966 -87 4 9
12 50 18 91 7 41 15 83 17 93 5 16 -47 17 -1013 15 -560 -1 -1002 -3 -983 -5z"/>
<path d="M32415 15008 c-4 -12 -525 -2973 -525 -2983 0 -3 205 -5 455 -5 l455
0 5 23 c3 12 53 297 110 632 121 704 111 655 129 655 10 0 15 -27 19 -112 5
-101 20 -171 139 -653 l134 -540 492 -3 c271 -1 492 1 492 5 0 5 -97 348 -216
764 l-216 756 452 709 c249 390 462 721 472 737 l19 27 -496 -2 -497 -3 -314
-515 c-268 -441 -318 -528 -343 -605 -19 -58 -35 -91 -45 -93 -9 -2 -16 3 -16
12 0 13 191 1108 206 1179 l6 27 -457 0 c-355 0 -457 -3 -460 -12z"/>
<path d="M3515 14450 c550 -59 1003 -105 1006 -101 4 3 12 44 18 91 7 47 14
93 17 103 5 16 -48 17 -1018 16 l-1023 -1 1000 -108z"/>
<path d="M6735 14553 c108 -14 1961 -210 1964 -207 2 2 -6 38 -17 81 -11 43
-23 90 -26 106 l-6 27 -973 -2 c-534 0 -958 -3 -942 -5z"/>
<path d="M13435 14553 c132 -18 1921 -203 1929 -200 6 3 24 44 40 93 16 49 31
95 33 102 4 9 -202 12 -1013 11 -561 -1 -1005 -4 -989 -6z"/>
<path d="M18027 14553 c140 -18 1969 -210 1972 -207 5 4 31 163 31 192 l0 22
-1017 -2 c-560 0 -1004 -3 -986 -5z"/>
<path d="M22555 14554 c20 -4 1891 -202 1949 -207 30 -2 30 -2 42 78 7 44 15
92 18 108 l6 27 -1018 -1 c-559 -1 -1008 -3 -997 -5z"/>
<path d="M26085 14553 c66 -9 1705 -183 1722 -183 13 0 32 29 65 95 l47 95
-932 -1 c-513 -1 -918 -4 -902 -6z"/>
<path d="M31145 14450 c550 -59 1003 -105 1006 -101 4 3 12 44 18 91 7 47 14
93 17 103 5 16 -48 17 -1018 16 l-1023 -1 1000 -108z"/>
<path d="M3430 13990 c647 -69 1007 -104 1011 -98 4 6 12 45 19 87 6 42 14 86
17 99 l5 22 -1028 -1 -1029 -1 1005 -108z"/>
<path d="M6838 14093 c157 -20 1968 -210 1971 -207 3 3 -12 70 -40 177 l-10
37 -977 -2 c-537 0 -962 -3 -944 -5z"/>
<path d="M13295 14093 c17 -2 453 -49 970 -103 517 -55 956 -102 976 -105 l36
-5 12 83 c7 45 14 94 18 110 l5 27 -1023 -1 c-563 -1 -1010 -4 -994 -6z"/>
<path d="M18596 14093 c73 -9 1979 -211 1981 -210 1 1 10 50 21 110 l19 107
-1026 -2 c-564 0 -1012 -3 -995 -5z"/>
<path d="M22475 14093 c110 -15 1971 -210 1974 -207 3 2 14 59 35 177 l7 37
-1023 -2 c-563 0 -1009 -3 -993 -5z"/>
<path d="M25845 14094 c11 -2 407 -44 880 -94 473 -49 878 -92 900 -95 l40 -5
24 82 c13 46 26 91 29 101 4 16 -45 17 -944 16 -522 -1 -940 -3 -929 -5z"/>
<path d="M31060 13990 c647 -69 1007 -104 1011 -98 4 6 12 45 19 87 6 42 14
86 17 99 l5 22 -1028 -1 -1029 -1 1005 -108z"/>
<path d="M3345 13530 c555 -60 1012 -107 1014 -105 2 3 40 195 41 213 0 1
-465 2 -1032 1 l-1033 -1 1010 -108z"/>
<path d="M6875 13633 c68 -10 1889 -203 1910 -203 34 0 108 131 99 177 l-6 33
-1017 -1 c-559 -1 -1002 -4 -986 -6z"/>
<path d="M13325 13634 c11 -2 445 -49 965 -104 520 -54 964 -102 987 -105 l41
-6 -13 50 c-7 27 -16 77 -20 110 l-7 61 -986 -1 c-543 -1 -978 -3 -967 -5z"/>
<path d="M18505 13633 c17 -2 453 -49 970 -103 517 -55 958 -102 981 -105 l40
-6 17 98 c10 54 17 104 17 111 0 9 -211 12 -1027 11 -566 -1 -1014 -4 -998 -6z"/>
<path d="M22385 13633 c73 -11 1980 -211 1983 -209 2 3 14 66 37 189 l5 27
-1028 -1 c-565 -1 -1013 -4 -997 -6z"/>
<path d="M25725 13634 c56 -10 1813 -194 1830 -192 20 3 22 8 44 146 l8 52
-951 -1 c-523 -1 -942 -3 -931 -5z"/>
<path d="M30975 13530 c555 -60 1012 -107 1014 -105 2 3 40 195 41 213 0 1
-465 2 -1032 1 l-1033 -1 1010 -108z"/>
<path d="M2290 13174 c25 -7 1984 -214 1987 -210 2 2 10 43 19 92 8 49 17 97
20 107 5 16 -48 17 -1018 16 -563 -1 -1016 -3 -1008 -5z"/>
<path d="M6635 13174 c6 -2 415 -46 910 -99 495 -52 921 -97 947 -101 l46 -6
49 84 c28 46 55 93 62 106 l12 22 -1018 -1 c-560 0 -1013 -2 -1008 -5z"/>
<path d="M13470 13174 c20 -5 2357 -204 2395 -204 20 0 -6 13 -74 35 -123 42
-199 81 -265 135 l-48 40 -1012 -1 c-556 -1 -1004 -3 -996 -5z"/>
<path d="M18420 13174 c21 -6 1993 -214 1995 -211 3 4 35 193 35 205 0 9 -237
12 -1022 11 -563 -1 -1016 -3 -1008 -5z"/>
<path d="M22300 13174 c19 -5 1984 -214 1986 -211 6 6 40 208 36 212 -3 3
-462 4 -1021 4 -559 -1 -1009 -3 -1001 -5z"/>
<path d="M25675 13174 c12 -4 1788 -194 1821 -194 26 0 29 11 38 133 l5 67
-937 -1 c-515 0 -932 -2 -927 -5z"/>
<path d="M29920 13174 c25 -7 1984 -214 1987 -210 2 2 10 43 19 92 8 49 17 97
20 107 5 16 -48 17 -1018 16 -563 -1 -1016 -3 -1008 -5z"/>
<path d="M2195 12714 c13 -5 1997 -215 2001 -212 4 5 34 175 34 196 l0 22
-1022 -1 c-563 0 -1018 -2 -1013 -5z"/>
<path d="M6360 12714 c13 -4 1893 -204 1911 -204 7 0 119 191 119 203 0 4
-460 6 -1022 6 -563 -1 -1016 -3 -1008 -5z"/>
<path d="M13355 12715 c14 -6 1645 -205 1675 -205 23 0 29 9 58 93 18 50 32
98 32 105 0 9 -184 12 -887 11 -489 0 -883 -2 -878 -4z"/>
<path d="M18330 12714 c44 -12 1995 -213 2001 -206 5 6 39 184 39 205 0 4
-462 6 -1027 6 -566 -1 -1021 -3 -1013 -5z"/>
<path d="M22210 12714 c22 -6 1993 -215 1996 -211 4 4 34 180 34 200 0 16 -55
17 -1022 16 -563 -1 -1016 -3 -1008 -5z"/>
<path d="M25725 12715 c6 -3 411 -47 900 -100 490 -52 901 -97 914 -99 26 -4
26 -11 0 142 l-11 62 -907 -1 c-498 0 -901 -2 -896 -4z"/>
<path d="M29825 12714 c13 -5 1997 -215 2001 -212 4 5 34 175 34 196 l0 22
-1022 -1 c-563 0 -1018 -2 -1013 -5z"/>
<path d="M2145 12244 c11 -2 448 -49 970 -104 523 -55 962 -102 976 -104 26
-5 26 -4 43 94 9 55 16 104 16 110 0 7 -314 10 -1012 9 -557 -1 -1004 -3 -993
-5z"/>
<path d="M6115 12244 c11 -2 430 -46 930 -99 501 -52 922 -97 936 -99 23 -4
30 4 82 93 31 54 57 101 57 105 0 3 -456 5 -1012 5 -557 -1 -1004 -3 -993 -5z"/>
<path d="M13300 12244 c58 -14 1595 -203 1600 -197 4 4 20 46 35 93 15 47 30
91 33 98 3 9 -168 12 -839 11 -464 -1 -837 -3 -829 -5z"/>
<path d="M18290 12243 c281 -32 1956 -209 1959 -207 2 2 40 194 41 212 0 1
-458 1 -1017 0 -560 -1 -1002 -3 -983 -5z"/>
<path d="M22155 12244 c42 -8 1914 -204 1942 -204 30 0 30 1 46 93 10 51 17
99 17 105 0 9 -234 12 -1012 11 -557 -1 -1004 -3 -993 -5z"/>
<path d="M27000 12160 c443 -48 806 -86 808 -85 1 1 -16 21 -38 45 -23 25 -53
64 -68 87 l-27 43 -740 -1 -740 -1 805 -88z"/>
<path d="M29775 12244 c11 -2 448 -49 970 -104 523 -55 962 -102 976 -104 26
-5 26 -4 43 94 9 55 16 104 16 110 0 7 -314 10 -1012 9 -557 -1 -1004 -3 -993
-5z"/>
<path d="M4840 10683 l260 -386 0 -284 0 -283 210 0 210 0 0 283 0 283 260
387 261 387 -230 0 -230 0 -132 -220 c-72 -121 -135 -220 -138 -220 -4 0 -65
99 -136 220 l-130 219 -233 1 -232 0 260 -387z"/>
<path d="M9730 10400 l0 -670 205 0 205 0 0 275 0 275 260 0 260 0 0 135 0
135 -260 0 -260 0 0 115 0 115 305 0 305 0 0 145 0 145 -510 0 -510 0 0 -670z"/>
<path d="M15930 10448 c-128 -343 -241 -644 -251 -670 l-19 -48 214 0 214 0 6
28 c4 15 18 64 32 110 l25 82 234 0 234 0 25 -82 c13 -46 28 -95 31 -110 l7
-28 219 0 219 0 -24 63 c-12 34 -126 335 -251 670 l-228 607 -226 0 -227 0
-234 -622z m530 29 c39 -124 70 -228 70 -231 0 -4 -66 -6 -146 -6 -126 0 -145
2 -140 15 3 8 36 114 72 235 37 121 69 218 71 216 2 -2 35 -105 73 -229z"/>
<path d="M23445 10976 l-180 -93 -3 -92 -3 -91 -69 0 -70 0 0 -135 0 -135 70
0 70 0 0 -232 c0 -331 20 -397 137 -454 55 -27 65 -29 188 -29 129 0 229 9
252 23 8 5 8 35 -2 120 -7 62 -15 115 -17 117 -2 3 -30 -1 -60 -7 -67 -14
-103 -3 -118 38 -6 14 -10 115 -10 225 l0 199 100 0 100 0 0 135 0 135 -100 0
-100 0 -2 185 -3 184 -180 -93z"/>
<path d="M24550 10400 l0 -670 170 0 170 0 1 498 c0 273 4 488 8 477 5 -11 59
-218 120 -460 62 -242 117 -457 122 -477 l10 -38 154 0 154 0 9 33 c5 17 62
242 128 499 l119 467 3 -499 2 -500 170 0 170 0 0 670 0 670 -273 0 -272 0
-99 -387 c-54 -214 -102 -394 -106 -401 -3 -7 -53 167 -110 387 l-103 401
-274 0 -273 0 0 -670z"/>
<path d="M6316 10709 c-175 -29 -326 -149 -386 -306 -28 -73 -38 -230 -20
-311 25 -116 99 -223 201 -291 82 -55 171 -81 299 -88 358 -20 600 182 600
501 0 255 -155 444 -403 491 -84 16 -211 18 -291 4z m214 -259 c71 -36 104
-110 104 -235 0 -132 -38 -210 -119 -240 -89 -34 -178 4 -218 94 -28 63 -34
181 -13 253 20 69 48 105 100 129 53 24 97 24 146 -1z"/>
<path d="M8835 10701 c-43 -19 -93 -70 -122 -124 l-18 -32 -3 78 -3 77 -169 0
-170 0 0 -485 0 -485 184 0 184 0 4 253 c4 225 7 259 27 319 14 45 31 75 52
92 47 40 71 43 170 20 24 -5 28 0 82 123 64 145 64 141 -27 168 -67 20 -142
18 -191 -4z"/>
<path d="M11206 10709 c-175 -29 -326 -149 -386 -306 -28 -73 -38 -230 -20
-311 25 -116 99 -223 201 -291 82 -55 171 -81 299 -88 358 -20 600 182 600
501 0 255 -155 444 -403 491 -84 16 -211 18 -291 4z m214 -259 c71 -36 104
-110 104 -235 0 -132 -38 -210 -119 -240 -89 -34 -178 4 -218 94 -28 63 -34
181 -13 253 20 69 48 105 100 129 53 24 97 24 146 -1z"/>
<path d="M12525 10701 c-43 -19 -93 -70 -122 -124 l-18 -32 -3 78 -3 77 -169
0 -170 0 0 -485 0 -485 184 0 184 0 4 253 c4 225 7 259 27 319 14 45 31 75 52
92 47 40 71 43 170 20 24 -5 28 0 82 123 64 145 64 141 -27 168 -67 20 -142
18 -191 -4z"/>
<path d="M13188 10705 c-187 -39 -328 -167 -373 -340 -20 -79 -20 -236 1 -306
50 -168 155 -276 319 -326 76 -23 349 -26 435 -4 126 31 219 96 291 202 22 33
38 59 35 59 -3 0 -85 7 -182 16 l-177 15 -31 -30 c-60 -58 -142 -76 -213 -46
-63 26 -97 70 -114 143 l-7 32 376 0 375 0 -6 98 c-11 164 -51 273 -133 356
-98 99 -200 135 -399 141 -88 3 -152 0 -197 -10z m233 -215 c45 -13 84 -53
104 -109 26 -75 35 -71 -165 -71 -174 0 -180 1 -180 20 0 27 26 89 48 114 23
26 90 56 127 56 17 0 46 -5 66 -10z"/>
<path d="M17548 10710 c-206 -37 -358 -175 -397 -358 -14 -68 -14 -216 0 -284
34 -159 164 -287 340 -335 93 -25 361 -25 444 0 144 44 252 142 305 277 11 29
19 54 17 57 -4 3 -322 42 -349 43 -5 0 -8 -6 -8 -13 0 -8 -14 -33 -31 -56 -83
-115 -266 -103 -331 22 -26 50 -36 180 -19 243 14 54 48 103 90 131 93 63 228
30 267 -64 8 -18 18 -33 22 -33 25 1 335 49 338 53 8 8 -36 100 -72 148 -49
67 -122 117 -212 146 -63 20 -102 25 -217 28 -77 2 -161 0 -187 -5z"/>
<path d="M18748 10710 c-206 -37 -358 -175 -397 -358 -14 -68 -14 -216 0 -284
34 -159 164 -287 340 -335 93 -25 361 -25 444 0 144 44 252 142 305 277 11 29
19 54 17 57 -4 3 -322 42 -349 43 -5 0 -8 -6 -8 -13 0 -8 -14 -33 -31 -56 -83
-115 -266 -103 -331 22 -26 50 -36 180 -19 243 14 54 48 103 90 131 93 63 228
30 267 -64 8 -18 18 -33 22 -33 25 1 335 49 338 53 8 8 -36 100 -72 148 -49
67 -122 117 -212 146 -63 20 -102 25 -217 28 -77 2 -161 0 -187 -5z"/>
<path d="M19956 10709 c-175 -29 -326 -149 -386 -306 -28 -73 -38 -230 -20
-311 25 -116 99 -223 201 -291 82 -55 171 -81 299 -88 358 -20 600 182 600
501 0 255 -155 444 -403 491 -84 16 -211 18 -291 4z m214 -259 c71 -36 104
-110 104 -235 0 -132 -38 -210 -119 -240 -89 -34 -178 4 -218 94 -28 63 -34
181 -13 253 20 69 48 105 100 129 53 24 97 24 146 -1z"/>
<path d="M22567 10710 c-63 -16 -132 -57 -186 -109 l-51 -50 0 75 0 74 -175 0
-175 0 0 -485 0 -485 184 0 184 0 4 283 c4 243 7 288 22 325 33 77 117 111
189 77 64 -30 67 -46 67 -384 l0 -301 190 0 190 0 0 328 c0 180 -5 356 -10
390 -29 176 -126 262 -305 268 -49 2 -107 -1 -128 -6z"/>
<path d="M26562 10709 c-131 -20 -236 -78 -279 -154 -26 -45 -49 -113 -41
-120 3 -3 81 -14 174 -26 160 -19 170 -19 179 -2 39 68 109 98 209 91 49 -4
63 -9 83 -32 17 -20 23 -38 21 -59 -3 -28 -9 -32 -70 -53 -37 -12 -144 -39
-239 -59 -95 -20 -191 -44 -213 -53 -121 -47 -176 -124 -176 -246 0 -195 145
-298 395 -283 117 7 180 27 260 82 36 25 67 45 70 45 3 0 5 -9 5 -20 0 -10 8
-35 17 -55 l17 -35 173 0 c95 0 173 2 173 4 0 2 -8 21 -17 42 -15 33 -19 84
-23 354 -6 292 -8 319 -27 369 -44 109 -108 167 -218 196 -73 20 -380 29 -473
14z m343 -646 c-23 -125 -257 -195 -310 -92 -43 82 -6 119 176 174 l134 41 3
-46 c2 -24 1 -59 -3 -77z"/>
<path d="M28037 10710 c-63 -16 -132 -57 -186 -109 l-51 -50 0 75 0 74 -175 0
-175 0 0 -485 0 -485 184 0 184 0 4 283 c4 243 7 288 22 325 33 77 117 111
189 77 64 -30 67 -46 67 -384 l0 -301 190 0 190 0 0 328 c0 180 -5 356 -10
390 -29 176 -126 262 -305 268 -49 2 -107 -1 -128 -6z"/>
<path d="M28962 10709 c-131 -20 -236 -78 -279 -154 -26 -45 -49 -113 -41
-120 3 -3 81 -14 174 -26 160 -19 170 -19 179 -2 39 68 109 98 209 91 49 -4
63 -9 83 -32 17 -20 23 -38 21 -59 -3 -28 -9 -32 -70 -53 -37 -12 -144 -39
-239 -59 -95 -20 -191 -44 -213 -53 -121 -47 -176 -124 -176 -246 0 -195 145
-298 395 -283 117 7 180 27 260 82 36 25 67 45 70 45 3 0 5 -9 5 -20 0 -10 8
-35 17 -55 l17 -35 173 0 c95 0 173 2 173 4 0 2 -8 21 -17 42 -15 33 -19 84
-23 354 -6 292 -8 319 -27 369 -44 109 -108 167 -218 196 -73 20 -380 29 -473
14z m343 -646 c-23 -125 -257 -195 -310 -92 -43 82 -6 119 176 174 l134 41 3
-46 c2 -24 1 -59 -3 -77z"/>
<path d="M30119 10706 c-131 -35 -226 -137 -264 -283 -19 -74 -19 -249 0 -332
30 -127 113 -234 222 -288 52 -25 68 -28 158 -28 87 0 107 4 156 26 31 15 75
44 99 65 l42 38 -4 -115 c-3 -125 -14 -158 -61 -193 -42 -31 -150 -30 -194 2
-18 13 -36 34 -39 48 -3 13 -9 24 -13 24 -3 0 -82 9 -176 20 -93 11 -174 20
-179 20 -5 0 -6 -29 -3 -65 15 -158 101 -248 272 -286 93 -21 372 -18 467 4
177 42 291 176 300 353 1 32 1 267 0 522 l-2 462 -170 0 -170 0 0 -65 c0 -36
-3 -65 -6 -65 -3 0 -17 14 -31 30 -84 100 -257 146 -404 106z m298 -267 c74
-28 112 -99 113 -208 0 -135 -55 -206 -162 -206 -69 0 -103 21 -136 86 -21 39
-23 55 -20 134 3 68 9 99 24 125 40 68 111 96 181 69z"/>
<path d="M31428 10705 c-187 -39 -328 -167 -373 -340 -20 -79 -20 -236 1 -306
50 -168 155 -276 319 -326 76 -23 349 -26 435 -4 126 31 219 96 291 202 22 33
38 59 35 59 -3 0 -85 7 -182 16 l-177 15 -31 -30 c-60 -58 -142 -76 -213 -46
-63 26 -97 70 -114 143 l-7 32 376 0 375 0 -6 98 c-11 164 -51 273 -133 356
-98 99 -200 135 -399 141 -88 3 -152 0 -197 -10z m233 -215 c45 -13 84 -53
104 -109 26 -75 35 -71 -165 -71 -174 0 -180 1 -180 20 0 27 26 89 48 114 23
26 90 56 127 56 17 0 46 -5 66 -10z"/>
<path d="M32775 10701 c-43 -19 -93 -70 -122 -124 l-18 -32 -3 78 -3 77 -169
0 -170 0 0 -485 0 -485 184 0 184 0 4 253 c4 225 7 259 27 319 14 45 31 75 52
92 47 40 71 43 170 20 24 -5 28 0 82 123 64 145 64 141 -27 168 -67 20 -142
18 -191 -4z"/>
<path d="M7142 10323 l3 -378 26 -55 c36 -76 71 -115 133 -145 96 -47 260 -44
360 7 22 11 66 45 98 76 l58 55 0 -76 0 -77 170 0 170 0 0 485 0 485 -184 0
-185 0 -3 -292 c-3 -274 -4 -295 -24 -328 -57 -97 -182 -107 -231 -17 -16 28
-18 68 -21 335 l-3 302 -185 0 -185 0 3 -377z"/>
<path d="M13931 10668 c13 -18 88 -122 166 -231 88 -121 141 -203 136 -210 -6
-10 -263 -381 -325 -469 l-19 -28 203 0 203 1 104 154 c57 85 105 154 106 152
2 -1 42 -71 90 -154 l87 -153 214 0 c118 0 214 2 214 5 0 3 -76 115 -170 249
-93 134 -170 248 -170 253 0 6 69 106 153 224 84 118 156 220 160 227 7 9 -35
12 -196 12 l-204 0 -87 -131 c-59 -88 -91 -128 -98 -121 -5 5 -40 63 -78 128
l-67 119 -222 3 -223 2 23 -32z"/>
<path d="M20782 10323 l3 -378 26 -55 c36 -76 71 -115 133 -145 96 -47 260
-44 360 7 22 11 66 45 98 76 l58 55 0 -76 0 -77 170 0 170 0 0 485 0 485 -184
0 -185 0 -3 -292 c-3 -274 -4 -295 -24 -328 -57 -97 -182 -107 -231 -17 -16
28 -18 68 -21 335 l-3 302 -185 0 -185 0 3 -377z"/>
</g>
</svg>
